<svg class="me-4" width="24" height="24" viewBox="0 0 24 24" fill="none" xmlns="http://www.w3.org/2000/svg">
    <path d="M12.7031 15.4193C13.5115 15.2208 14.1094 14.7004 14.1094 14.1025C14.1094 13.5045 13.5115 12.9842 12.7031 12.7856V15.4193Z" fill="#CF1B1B"></path>
    <path d="M12 4.26562C7.73527 4.26562 4.26562 7.73527 4.26562 12C4.26562 16.2647 7.73527 19.7344 12 19.7344C16.2647 19.7344 19.7344 16.2647 19.7344 12C19.7344 7.73527 16.2647 4.26562 12 4.26562ZM15.5156 14.1025C15.5156 15.461 14.3058 16.5968 12.7031 16.8581V17.625C12.7031 18.0136 12.3886 18.3281 12 18.3281C11.6114 18.3281 11.2969 18.0136 11.2969 17.625V16.8581C9.69417 16.5968 8.48438 15.461 8.48438 14.1025C8.48438 13.7139 8.79886 13.3994 9.1875 13.3994C9.57614 13.3994 9.89062 13.7139 9.89062 14.1025C9.89062 14.7005 10.4885 15.2208 11.2969 15.4193V12.6394C9.69417 12.3781 8.48438 11.2422 8.48438 9.88378C8.48438 8.52534 9.69417 7.38947 11.2969 7.12819V6.36816C11.2969 5.97952 11.6114 5.66503 12 5.66503C12.3886 5.66503 12.7031 5.97952 12.7031 6.36816V7.12819C14.3058 7.38947 15.5156 8.52534 15.5156 9.88378C15.5156 10.2724 15.2011 10.5869 14.8125 10.5869C14.4239 10.5869 14.1094 10.2724 14.1094 9.88378C14.1094 9.2858 13.5115 8.76548 12.7031 8.56697V11.3469C14.3058 11.6082 15.5156 12.744 15.5156 14.1025Z" fill="#CF1B1B"></path>
    <path d="M11.2969 8.56689C10.4885 8.76541 9.89062 9.28572 9.89062 9.88371C9.89062 10.4817 10.4885 11.002 11.2969 11.2005V8.56689Z" fill="#CF1B1B"></path>
    <path d="M12 0C5.40891 0 0 5.40891 0 12C0 18.5911 5.40891 24 12 24C18.5911 24 24 18.5911 24 12C24 5.40891 18.5911 0 12 0ZM12 21.1406C6.96 21.1406 2.85938 17.04 2.85938 12C2.85938 6.96 6.96 2.85938 12 2.85938C17.04 2.85938 21.1406 6.96 21.1406 12C21.1406 17.04 17.04 21.1406 12 21.1406Z" fill="#CF1B1B"></path>
</svg>