<svg class="me-3" width="15" height="13" viewBox="0 0 15 13" fill="none" xmlns="http://www.w3.org/2000/svg">
    <path d="M0.313976 1.90545C2.37267 3.64894 5.98503 6.71626 7.04675 7.67266C7.18928 7.80174 7.34215 7.86736 7.50085 7.86736C7.65923 7.86736 7.81184 7.80235 7.95405 7.67389C9.01668 6.71655 12.629 3.64894 14.6878 1.90545C14.8159 1.79711 14.8355 1.60668 14.7317 1.47423C14.4918 1.16816 14.1342 0.992676 13.7508 0.992676H1.25086C0.86757 0.992676 0.509884 1.16816 0.27003 1.47426C0.166261 1.60668 0.185802 1.79711 0.313976 1.90545Z" fill="#CF1B1B"></path>
    <path d="M14.8196 2.85042C14.7088 2.79886 14.5785 2.81685 14.4863 2.8956C13.1381 4.03847 11.3617 5.54849 10.0219 6.70082C9.95146 6.76126 9.91179 6.85006 9.91331 6.94314C9.91483 7.03592 9.95787 7.12349 10.0305 7.18147C11.2753 8.17847 13.1512 9.54994 14.5059 10.5247C14.5599 10.5637 14.624 10.5836 14.6884 10.5836C14.7372 10.5836 14.786 10.5723 14.8309 10.5491C14.9353 10.4957 15.0009 10.3882 15.0009 10.2711V3.13393C15.0008 3.01217 14.93 2.9014 14.8196 2.85042Z" fill="#CF1B1B"></path>
    <path d="M0.495854 10.5244C1.85083 9.54968 3.72707 8.17823 4.97157 7.1812C5.04419 7.12322 5.08723 7.03562 5.08876 6.94287C5.09028 6.84979 5.05061 6.76099 4.98012 6.70055C3.64038 5.54822 1.86364 4.0382 0.515396 2.89533C0.422612 2.81658 0.292007 2.79921 0.182144 2.85015C0.071665 2.90113 0.000854492 3.0119 0.000854492 3.13366V10.2708C0.000854492 10.388 0.0664795 10.4954 0.170835 10.5488C0.215688 10.572 0.264526 10.5833 0.313364 10.5833C0.377759 10.5833 0.441831 10.5635 0.495854 10.5244Z" fill="#CF1B1B"></path>
    <path d="M14.6179 11.3748C13.3096 10.4388 10.8996 8.69383 9.461 7.5262C9.34382 7.4307 9.17413 7.43374 9.05879 7.53323C8.77651 7.7795 8.54029 7.98704 8.37274 8.13778C7.8582 8.60225 7.14409 8.60225 6.62835 8.13716C6.46141 7.98672 6.22522 7.77857 5.94292 7.53321C5.82849 7.4331 5.6585 7.43005 5.54099 7.52617C4.10726 8.68982 1.69455 10.4369 0.384129 11.3748C0.31118 11.4273 0.264188 11.5081 0.255047 11.5975C0.2462 11.6869 0.275789 11.7757 0.337137 11.8417C0.57368 12.0965 0.906932 12.2427 1.25088 12.2427H13.7509C14.0948 12.2427 14.4278 12.0965 14.6649 11.8417C14.7259 11.7761 14.7558 11.6873 14.747 11.5978C14.7378 11.5085 14.6908 11.4273 14.6179 11.3748Z" fill="#CF1B1B"></path>
</svg>