<svg class="me-5" width="16" height="16" viewBox="0 0 16 16" fill="none" xmlns="http://www.w3.org/2000/svg">
    <path d="M8 0C3.58172 0 0 3.58172 0 8C0 12.4183 3.58172 16 8 16C12.4183 16 16 12.4183 16 8C15.9953 3.5837 12.4163 0.00472099 8 0ZM8 14.8572C4.2129 14.8572 1.14285 11.7871 1.14285 8C1.14285 4.2129 4.2129 1.14285 8 1.14285C11.7871 1.14285 14.8572 4.2129 14.8572 8C14.8531 11.7854 11.7854 14.8531 8 14.8572Z" fill="#CF1B1B"></path>
    <path d="M7.99989 12.5716C10.5246 12.5716 12.5713 10.5249 12.5713 8.00013C12.5713 5.47541 10.5246 3.42871 7.99989 3.42871C5.47516 3.42871 3.42847 5.47541 3.42847 8.00013C3.42847 10.5249 5.47516 12.5716 7.99989 12.5716Z" fill="#CF1B1B"></path>
</svg>