<svg class="me-3" width="15" height="16" viewBox="0 0 15 16" fill="none" xmlns="http://www.w3.org/2000/svg">
    <g clip-path="">
        <path d="M13.7973 10.8385C12.8789 10.8385 11.9772 10.6948 11.1227 10.4124C10.704 10.2696 10.1893 10.4006 9.93371 10.6631L8.2471 11.9363C6.29113 10.8922 5.08628 9.68775 4.05644 7.74646L5.29218 6.10381C5.61324 5.78318 5.72839 5.31482 5.59043 4.87537C5.30683 4.01639 5.16277 3.1151 5.16277 2.19635C5.16281 1.53264 4.62285 0.992676 3.95917 0.992676H1.20449C0.540815 0.992676 0.000854492 1.53264 0.000854492 2.19631C0.000854492 9.80373 6.18984 15.9927 13.7973 15.9927C14.4609 15.9927 15.0009 15.4527 15.0009 14.789V12.0421C15.0009 11.3784 14.4609 10.8385 13.7973 10.8385Z" fill="#CF1B1B"></path>
        <path d="M13.8166 10.869C12.8914 10.869 11.9851 10.7245 11.1253 10.4403C10.7061 10.2958 10.2309 10.4072 9.95456 10.6882L8.25166 11.9743C6.29849 10.9322 5.04796 9.68242 4.01851 7.7419L5.26982 6.07927C5.58482 5.76349 5.69773 5.30321 5.56273 4.87138C5.2777 4.00768 5.13245 3.10057 5.13245 2.17689C5.13245 1.52398 4.60115 0.992676 3.94824 0.992676H1.18507C0.532158 0.992676 0.000854492 1.52398 0.000854492 2.17689C0.000854492 9.79451 6.19902 15.9927 13.8166 15.9927C14.4696 15.9927 15.0009 15.4614 15.0009 14.8085V12.0532C15.0009 11.4003 14.4696 10.869 13.8166 10.869ZM14.2114 14.8085C14.2114 15.0264 14.0338 15.2032 13.8166 15.2032C6.63399 15.2032 0.790316 9.35954 0.790316 2.17689C0.790316 1.95899 0.967948 1.78214 1.18507 1.78214H3.94824C4.16536 1.78214 4.34299 1.95899 4.34299 2.17689C4.34299 3.18506 4.5009 4.17506 4.81034 5.11373C4.85612 5.26135 4.81904 5.41374 4.67457 5.56373L3.23771 7.46635C3.14693 7.58714 3.13272 7.74897 3.20141 7.8832C4.37219 10.1829 5.79405 11.6056 8.11037 12.7922C8.24378 12.8616 8.4072 12.8474 8.52799 12.7559L10.4717 11.2827C10.5775 11.1785 10.733 11.1422 10.8735 11.1887C11.8178 11.5006 12.8078 11.6585 13.8167 11.6585C14.0338 11.6585 14.2115 11.8353 14.2115 12.0532V14.8085H14.2114Z" fill="#CF1B1B"></path>
    </g>
    <defs>
        <clipPath id="clip0">
            <rect width="15" height="15" fill="white" transform="translate(0.000854492 0.992676)"></rect>
        </clipPath>
    </defs>
</svg>