<svg class="me-3" width="15" height="16" viewBox="0 0 15 16" fill="none" xmlns="http://www.w3.org/2000/svg">
    <g clip-path="">
    <path d="M7.49999 15.4113C11.3213 15.4113 14.419 12.3136 14.419 8.49229C14.419 4.671 11.3213 1.57324 7.49999 1.57324C3.67871 1.57324 0.580948 4.671 0.580948 8.49229C0.580948 12.3136 3.67871 15.4113 7.49999 15.4113Z" fill="#CF1B1B"></path>
    <path d="M7.5 15.9922C3.36483 15.9922 0 12.6279 0 8.49219C0 4.35702 3.36483 0.992188 7.5 0.992188C11.6358 0.992188 15 4.35702 15 8.49219C15 12.6279 11.6358 15.9922 7.5 15.9922ZM7.5 2.15407C4.00503 2.15407 1.16188 4.99722 1.16188 8.49219C1.16188 11.9872 4.00503 14.8303 7.5 14.8303C10.995 14.8303 13.8381 11.9866 13.8381 8.49219C13.8381 4.99722 10.995 2.15407 7.5 2.15407Z" fill="#CF1B1B"></path>
    <path d="M9.8232 10.8626C9.70179 10.8626 9.57977 10.8248 9.47521 10.7464L7.15144 9.00355C7.00504 8.89433 6.91905 8.7218 6.91905 8.53878V5.05312C6.91905 4.73244 7.17933 4.47217 7.50001 4.47217C7.82069 4.47217 8.08097 4.73244 8.08097 5.05312V8.24833L10.1724 9.81688C10.4292 10.0092 10.4814 10.3734 10.2886 10.6296C10.1746 10.783 10.0004 10.8626 9.8232 10.8626Z" fill="white"></path>
    </g>
    <defs>
        <clipPath id="clip0">
        <rect width="15" height="15" fill="white" transform="translate(0 0.992188)"></rect>
        </clipPath>
    </defs>
</svg>