<svg class="mb-5" width="37" height="37" viewBox="0 0 37 37" fill="none" xmlns="http://www.w3.org/2000/svg">
    <path d="M26.6779 12.6298C27.2424 13.1944 27.2424 14.1096 26.6779 14.6739L16.9819 24.3702C16.4173 24.9345 15.5024 24.9345 14.9378 24.3702L10.3221 19.7542C9.75755 19.1899 9.75755 18.2747 10.3221 17.7104C10.8864 17.1459 11.8016 17.1459 12.3659 17.7104L15.9597 21.3042L24.6338 12.6298C25.1984 12.0655 26.1136 12.0655 26.6779 12.6298ZM37 18.5C37 28.7259 28.7245 37 18.5 37C8.27413 37 0 28.7245 0 18.5C0 8.27413 8.27554 0 18.5 0C28.7259 0 37 8.27554 37 18.5ZM34.1094 18.5C34.1094 9.87188 27.127 2.89062 18.5 2.89062C9.87188 2.89062 2.89062 9.87301 2.89062 18.5C2.89062 27.1281 9.87301 34.1094 18.5 34.1094C27.1281 34.1094 34.1094 27.127 34.1094 18.5Z" fill="#CF1B1B"></path>
</svg>