<svg class="me-4" width="24" height="24" viewBox="0 0 24 24" fill="none" xmlns="http://www.w3.org/2000/svg">
   <path d="M11.8172 4.94161C11.5782 3.53536 10.4391 2.12911 8.66719 1.10259C5.68594 -0.528658 3.35152 0.00571695 2.21245 0.469733C0.862547 1.04634 0.328125 1.83384 0.257859 1.91822L0 2.25567L0.215625 2.6213C0.243797 2.64947 0.6375 3.43697 1.46719 4.35094C3.87183 7.03692 6.29062 8.10558 9.96089 8.11969C9.90469 8.00723 9.84834 7.89473 9.77808 7.7963C8.7937 6.20723 7.17656 4.89942 5.22183 4.11192L5.7562 2.80411C7.97812 3.70411 9.83437 5.20875 10.9593 7.03692C11.0437 7.1775 11.1281 7.31812 11.2125 7.4588C11.761 6.67134 11.9578 5.81353 11.8172 4.94161Z" fill="#CF1B1B"></path>
   <path d="M23.7891 1.91847C22.2188 0.0338573 18.9155 -0.858736 15.3187 1.1169C13.561 2.12936 12.4219 3.53561 12.1828 4.94186C12.0423 5.81383 12.239 6.67159 12.7875 7.45909C12.8719 7.31842 12.9563 7.17784 13.0407 7.03722C14.1657 5.20904 16.0219 3.7044 18.2438 2.8044L18.7782 4.11222C16.8235 4.89972 15.2063 6.20753 14.236 7.78253C14.1657 7.89508 14.0953 8.00758 14.0391 8.12003C17.7095 8.10597 20.1283 7.03726 22.5329 4.35128C23.3626 3.43726 23.8032 2.64976 23.8313 2.62164L24 2.25601L23.7891 1.91847Z" fill="#CF1B1B"></path>
   <path d="M24 24H0V23.25C0 19.8765 3.41948 17.4784 6.57342 18.611C7.70709 16.7111 9.76908 15.5156 12 15.5156C14.2309 15.5156 16.2929 16.7111 17.4266 18.611C20.5793 17.4788 24 19.8754 24 23.25V24Z" fill="#CF1B1B"></path>
   <path d="M14.0391 8.11963C13.1813 9.5962 12.7454 11.4103 12.7031 13.5197V14.0962C12.4641 14.0681 12.239 14.0541 12 14.0541C11.761 14.0541 11.5359 14.0681 11.2969 14.0962V13.5197C11.2546 11.3962 10.8187 9.58218 9.96094 8.11963C9.96094 8.11963 11.1282 7.59932 11.2125 7.45874C11.5218 8.00718 11.789 8.58374 12 9.20249C12.211 8.58374 12.4782 7.99312 12.7875 7.45874C12.8719 7.59932 14.0391 8.11963 14.0391 8.11963Z" fill="#CF1B1B"></path>
</svg>