<svg class="mb-4 mb-sm-0 me-sm-5 forYouSvg" width="51" height="51" viewBox="0 0 51 51" fill="none" xmlns="http://www.w3.org/2000/svg">
            <path d="M8.25533 30.9907C8.59569 31.2185 8.98058 31.3273 9.36139 31.3273C10.0039 31.3273 10.6347 31.017 11.0189 30.4429C14.238 25.6326 19.6192 22.7607 25.4135 22.7607C31.1908 22.7607 36.5631 25.6194 39.7845 30.4078C40.3988 31.3207 41.6366 31.5628 42.5494 30.9486C43.4624 30.3344 43.7045 29.0965 43.0903 28.1837C40.5165 24.3581 36.8264 21.5352 32.6095 20.0252C35.1384 17.9594 36.7559 14.818 36.7559 11.3057C36.7559 5.0991 31.7066 0.0498047 25.5 0.0498047C19.2934 0.0498047 14.2441 5.0991 14.2441 11.3057C14.2441 14.7928 15.8381 17.9144 18.3357 19.9807C14.0529 21.4852 10.3073 24.3422 7.70757 28.227C7.09567 29.1414 7.34091 30.3788 8.25533 30.9907ZM25.5 4.03418C29.5095 4.03418 32.7715 7.29619 32.7715 11.3057C32.7715 15.3151 29.5095 18.5771 25.5 18.5771C21.4905 18.5771 18.2285 15.3151 18.2285 11.3057C18.2285 7.29619 21.4905 4.03418 25.5 4.03418ZM33.4446 35.3245L30.4747 37.467C30.0328 37.7857 29.8478 38.3508 30.0167 38.8666L31.2127 42.3332C31.2632 42.4876 31.2826 42.6384 31.2761 42.7822C31.2338 43.7133 30.0669 44.3502 29.211 43.7328L26.2412 41.5897C26.0203 41.4303 25.7602 41.3506 25.5001 41.3506C25.24 41.3506 24.9799 41.4303 24.759 41.5897L21.7892 43.7328C20.9333 44.3502 19.7608 43.7133 19.7238 42.7822C19.7181 42.6384 19.738 42.4875 19.7885 42.3332L20.9834 38.8666C21.1522 38.3508 20.9673 37.7857 20.5254 37.467L17.5555 35.3245C16.5673 34.6117 17.0751 32.9209 18.2965 32.9209H21.9676C22.5138 32.9209 22.9979 32.7106 23.1667 32.1948L24.301 28.7058C24.4898 28.1292 24.9949 27.8408 25.5001 27.8408C26.0053 27.8408 26.5104 28.1292 26.6992 28.7058L27.8335 32.1948C28.0024 32.7106 28.4864 32.9209 29.0326 32.9209H32.7037C33.925 32.9209 34.4328 34.6117 33.4446 35.3245ZM50.4778 42.2971L47.5079 44.4396C47.066 44.7584 46.8811 45.3235 47.0499 45.8392L48.2459 49.3058C48.2964 49.4602 48.3158 49.611 48.3094 49.7549C48.267 50.6859 47.1001 51.3228 46.2443 50.7055L43.2744 48.5624C43.0535 48.403 42.7934 48.3233 42.5333 48.3233C42.2732 48.3233 42.0131 48.403 41.7922 48.5624L38.8224 50.7055C37.9665 51.3228 36.794 50.6859 36.757 49.7549C36.7513 49.611 36.7712 49.4601 36.8217 49.3058L38.0166 45.8392C38.1855 45.3235 38.0005 44.7584 37.5586 44.4396L34.5887 42.2971C33.6005 41.5843 34.1083 39.8936 35.3298 39.8936H39.0008C39.547 39.8936 40.0311 39.6833 40.1999 39.1675L41.3342 35.6785C41.523 35.1018 42.0281 34.8135 42.5333 34.8135C43.0385 34.8135 43.5436 35.1018 43.7324 35.6785L44.8668 39.1675C45.0356 39.6833 45.5196 39.8936 46.0658 39.8936H49.7369C50.9582 39.8936 51.466 41.5843 50.4778 42.2971ZM16.4114 42.2971L13.4415 44.4396C12.9996 44.7584 12.8146 45.3235 12.9835 45.8392L14.1795 49.3058C14.23 49.4602 14.2494 49.611 14.2429 49.7549C14.2006 50.6859 13.0337 51.3228 12.1778 50.7055L9.20789 48.5624C8.98696 48.403 8.72688 48.3233 8.4668 48.3233C8.20672 48.3233 7.94664 48.403 7.7257 48.5624L4.75585 50.7055C3.90001 51.3228 2.7275 50.6859 2.69045 49.7549C2.68477 49.611 2.70469 49.4601 2.7552 49.3058L3.95011 45.8392C4.11895 45.3235 3.93397 44.7584 3.49211 44.4396L0.522152 42.2971C-0.465973 41.5843 0.0418358 39.8936 1.26325 39.8936H4.93425C5.48051 39.8936 5.96461 39.6833 6.13335 39.1675L7.2677 35.6785C7.45646 35.1018 7.96158 34.8135 8.4668 34.8135C8.97202 34.8135 9.47713 35.1018 9.66589 35.6785L10.8002 39.1675C10.9691 39.6833 11.4531 39.8936 11.9993 39.8936H15.6703C16.8918 39.8936 17.3996 41.5843 16.4114 42.2971Z" fill="#CF1B1B"></path>
          </svg>