<svg class="mb-4 mb-sm-0 me-sm-5 forYouSvg" width="50" height="48" viewBox="0 0 50 48" fill="none" xmlns="http://www.w3.org/2000/svg">
            <path d="M50 23.1562C50 34.6392 41.5301 44.1811 30.5098 45.8635C30.6028 45.3538 30.6288 44.8261 30.5663 44.2913C30.5663 44.2913 30.5004 43.7285 30.4143 42.992C34.327 42.3254 37.8595 40.5301 40.6594 37.9481C40.4913 37.8083 40.3239 37.627 40.1589 37.3864C39.4153 36.3013 40.3877 35.2247 40.3877 34.2758C40.3877 33.3451 38.5113 33.4217 38.4426 32.8052C38.2055 30.6704 39.7526 30.6413 40.5774 29.8165C41.4023 28.9917 39.7622 27.1164 38.7028 27.2374C37.6362 27.3513 34.634 26.7449 34.9083 24.4479C35.2426 21.6503 31.344 21.8971 30.7858 20.5913C29.972 18.6879 31.3248 16.3533 33.0894 15.8229C35.5887 15.0717 38.0509 13.0327 37.8586 10.7629C37.6407 8.19225 36.4771 5.87387 34.5607 4.49666C32.5664 3.68874 30.416 3.18914 28.1662 3.06308C26.1582 3.14249 24.3929 3.58874 24.4734 4.50802C24.6709 6.76079 31.077 7.34593 30.002 9.45181C29.4416 10.5496 25.2354 12.099 26.0209 13.7329C26.5319 14.7954 27.7893 13.8847 27.3198 15.9245C27.1038 16.8631 26.2809 18.6266 25.0153 18.7404C23.7211 18.8612 22.6434 15.4326 19.1207 15.3202C17.4553 15.2669 15.1091 17.9186 17.1013 19.7998C18.3077 20.939 20.5715 18.4306 21.2396 20.39C21.7105 21.7708 21.1762 24.6715 23.3737 25.8838C24.1747 26.3257 25.4028 26.7109 26.6173 27.328C24.8146 27.6962 22.5996 28.3831 19.984 29.3906L17.7802 28.8092C18.7028 28.0412 20.2017 27.5006 19.8246 25.8225C19.2706 23.357 14.9898 24.2869 12.0386 21.3357C11.1332 20.4305 9.20204 17.4245 9.20996 13.8131C7.73888 16.6074 6.90163 19.7851 6.90163 23.1563C6.90163 24.194 6.9808 25.2136 7.133 26.2094C7.09828 26.2088 7.06397 26.2028 7.02933 26.2028C6.09991 26.2028 5.18839 26.398 4.34362 26.7672C4.15702 25.5904 4.05743 24.385 4.05743 23.1564C4.05743 10.4901 14.3624 0.184814 27.0286 0.184814C39.695 0.184651 50 10.49 50 23.1562ZM32.7687 29.8516L27.1584 32.4305L27.2454 31.208L30.8799 29.5673C30.3615 29.5302 29.8244 29.5161 29.2881 29.5161C27.2801 29.5161 23.8873 30.5326 20.1349 32.0221L8.09999 28.8476C6.97532 28.5509 5.77794 28.7337 4.79289 29.3525L4.20114 29.7243C3.62344 30.0872 3.61732 30.9271 4.18962 31.2985L11.424 35.9919C9.69583 36.8757 8.0562 37.7734 6.61078 38.6306L2.89852 36.6653C2.29215 36.3443 1.57524 36.3062 0.938394 36.5613L0.587005 36.7021C0.0629852 36.9119 -0.156541 37.5351 0.12042 38.027L2.16544 41.6603L2.16634 41.66C1.39477 42.3238 0.95506 42.8743 0.95506 43.2552C0.95506 44.3954 2.35817 44.6804 3.59493 44.6804C5.80081 44.6804 34.9321 38.0104 34.9321 31.9676C34.9319 30.7708 34.1135 30.1723 32.7687 29.8516ZM20.4862 41.6498L26.8966 39.3916C27.1789 39.2921 27.4806 39.4803 27.5154 39.7777L28.0774 44.5829C28.2179 45.7836 27.5721 46.9391 26.4758 47.4487L25.8746 47.7281C25.4991 47.9026 25.0537 47.8091 24.7801 47.4984L20.2908 42.3987C20.0723 42.1503 20.1741 41.7597 20.4862 41.6498Z" fill="#CF1B1B"></path>
          </svg>