<svg class="mb-4 mb-sm-0 me-sm-5 forYouSvg" width="50" height="46" viewBox="0 0 50 46" fill="none" xmlns="http://www.w3.org/2000/svg">
            <path d="M24.9858 4.59087C14.0873 -4.94142 0.230047 3.43392 0.00281777 14.788C-0.055088 17.6817 0.7802 20.5003 2.44287 23.0988H13.2198L15.1366 19.904C15.6932 18.9764 17.0402 18.9465 17.6283 19.8712L21.6726 26.2265L27.568 13.7811C28.0821 12.6951 29.6143 12.6607 30.1814 13.7137L35.2349 23.0988H47.5287C56.6356 8.86554 38.6373 -7.34914 24.9858 4.59087Z" fill="#CF1B1B"></path>
            <path d="M33.0704 25.2578L28.9754 17.6528L23.1847 29.8775C22.6921 30.9175 21.2431 31.0079 20.6252 30.0368L16.4293 23.4433L15.305 25.317C15.0403 25.7582 14.5636 26.0281 14.0491 26.0281H4.75995C5.05114 26.3328 3.49921 24.784 23.9526 45.1315C24.5239 45.6999 25.4473 45.7 26.0187 45.1315C46.1574 25.0971 44.9208 26.3323 45.2114 26.0281H34.36C33.8211 26.0282 33.3258 25.7323 33.0704 25.2578Z" fill="#CF1B1B"></path>
          </svg>