<svg class="mb-4 mb-sm-0 me-sm-5 forYouSvg" width="50" height="44" viewBox="0 0 50 44" fill="none" xmlns="http://www.w3.org/2000/svg">
            <path d="M43.75 0.25H6.25C2.8125 0.25 -1.90735e-06 3.0625 -1.90735e-06 6.5V31.5C-1.90735e-06 34.9375 2.8125 37.75 6.25 37.75H20.3333C19.7292 36.4375 19.2917 35.0417 19.0417 33.5833H6.25C5.10416 33.5833 4.16666 32.6458 4.16666 31.5V6.5C4.16666 5.35417 5.10416 4.41667 6.25 4.41667H43.75C44.8958 4.41667 45.8333 5.35417 45.8333 6.5V15.4375C47.4167 16.4167 48.8125 17.6458 50 19.0417V6.5C50 3.0625 47.1875 0.25 43.75 0.25Z" fill="#CF1B1B"></path>
            <path d="M15.1042 10.6665H2.60417C1.74167 10.6665 1.04167 11.3665 1.04167 12.229V25.7707C1.04167 26.6332 1.74167 27.3332 2.60417 27.3332H15.1042C18.2646 27.3332 20.8333 24.7644 20.8333 21.604V16.3957C20.8333 13.2353 18.2646 10.6665 15.1042 10.6665ZM12.5 23.1665C10.1979 23.1665 8.33333 21.3019 8.33333 18.9998C8.33333 16.6978 10.1979 14.8332 12.5 14.8332C14.8021 14.8332 16.6667 16.6978 16.6667 18.9998C16.6667 21.3019 14.8021 23.1665 12.5 23.1665Z" fill="#CF1B1B"></path>
            <path d="M36.4583 16.9165C28.9917 16.9165 22.9167 22.9915 22.9167 30.4582C22.9167 37.9248 28.9917 43.9998 36.4583 43.9998C43.925 43.9998 50 37.9248 50 30.4582C50 22.9915 43.925 16.9165 36.4583 16.9165ZM36.1979 28.8957H36.7188C38.8729 28.8957 40.625 30.6477 40.625 32.8019C40.625 34.4957 39.5333 35.929 38.0208 36.4686V37.229C38.0208 38.0915 37.3208 38.7915 36.4583 38.7915C35.5958 38.7915 34.8958 38.0915 34.8958 37.229V36.7082H33.8542C32.9917 36.7082 32.2917 36.0082 32.2917 35.1457C32.2917 34.2832 32.9917 33.5832 33.8542 33.5832H36.7188C37.15 33.5832 37.5 33.2332 37.5 32.8019C37.5 32.3707 37.15 32.0207 36.7188 32.0207H36.1979C34.0438 32.0207 32.2917 30.2686 32.2917 28.1144C32.2917 26.4207 33.3833 24.9873 34.8958 24.4478V23.6873C34.8958 22.8248 35.5958 22.1248 36.4583 22.1248C37.3208 22.1248 38.0208 22.8248 38.0208 23.6873V24.2082H39.0625C39.925 24.2082 40.625 24.9082 40.625 25.7707C40.625 26.6332 39.925 27.3332 39.0625 27.3332H36.1979C35.7667 27.3332 35.4167 27.6832 35.4167 28.1144C35.4167 28.5457 35.7667 28.8957 36.1979 28.8957Z" fill="#CF1B1B"></path>
          </svg>