<svg xmlns="http://www.w3.org/2000/svg" height="311.077" width="311"><rect width="100%" height="100%" fill="none"/><g class="currentLayer"><path d="M15.33 313.19c-4.097 0-8.194-1.558-11.308-4.695-6.25-6.25-6.25-16.382 0-22.632L283.085 6.8c6.25-6.25 16.383-6.25 22.633 0s6.25 16.383 0 22.637L26.659 308.495a16.045 16.045 0 01-11.328 4.696zm0 0" fill="#fff"/><path d="M295.117 311.078a15.879 15.879 0 01-11.308-4.695L4.727 27.324c-6.25-6.254-6.25-16.386 0-22.636s16.382-6.25 22.636 0L306.422 283.75c6.25 6.25 6.25 16.383 0 22.633-3.137 3.117-7.23 4.695-11.305 4.695zm0 0" class="selected" fill="#fff"/></g></svg>