<svg width="20" height="20" viewBox="0 0 24 24" fill="none" xmlns="http://www.w3.org/2000/svg">
    <g>
        <path d="M12.0039 5.83789C8.60095 5.83789 5.84595 8.59589 5.84595 11.9959C5.84595 15.3989 8.60395 18.1539 12.0039 18.1539C15.4069 18.1539 18.1619 15.3959 18.1619 11.9959C18.1619 8.59289 15.4039 5.83789 12.0039 5.83789ZM12.0039 15.9929C9.79495 15.9929 8.00695 14.2039 8.00695 11.9959C8.00695 9.78789 9.79595 7.99889 12.0039 7.99889C14.2119 7.99889 16.0009 9.78789 16.0009 11.9959C16.0019 14.2039 14.2129 15.9929 12.0039 15.9929Z" fill="white" fill-opacity="0.8"></path>
        <path d="M16.9481 0.0753866C14.7401 -0.0276133 9.2711 -0.0226133 7.06111 0.0753866C5.11911 0.166387 3.40611 0.635386 2.02511 2.01639C-0.282895 4.32439 0.0121052 7.43439 0.0121052 11.9954C0.0121052 16.6634 -0.247895 19.7014 2.02511 21.9744C4.3421 24.2904 7.4971 23.9874 12.0041 23.9874C16.6281 23.9874 18.2241 23.9904 19.8591 23.3574C22.0821 22.4944 23.7601 20.5074 23.9241 16.9384C24.0281 14.7294 24.0221 9.26138 23.9241 7.05139C23.7261 2.83839 21.4651 0.283387 16.9481 0.0753866ZM20.4431 20.4474C18.9301 21.9604 16.8311 21.8254 11.9751 21.8254C6.97511 21.8254 4.97011 21.8994 3.50711 20.4324C1.82211 18.7554 2.12711 16.0624 2.12711 11.9794C2.12711 6.45439 1.56011 2.47539 7.10511 2.19139C8.37911 2.14639 8.75411 2.13139 11.9611 2.13139L12.0061 2.16139C17.3351 2.16139 21.5161 1.60339 21.7671 7.14739C21.8241 8.41238 21.8371 8.79239 21.8371 11.9944C21.8361 16.9364 21.9301 18.9534 20.4431 20.4474Z" fill="white" fill-opacity="0.8"></path>
        <path d="M18.406 7.03425C19.2008 7.03425 19.845 6.38999 19.845 5.59525C19.845 4.80051 19.2008 4.15625 18.406 4.15625C17.6113 4.15625 16.967 4.80051 16.967 5.59525C16.967 6.38999 17.6113 7.03425 18.406 7.03425Z" fill="white" fill-opacity="0.8"></path>
    </g>
    <defs>
        <clipPath id="clip0">
            <rect width="24" height="24" fill="white"></rect>
        </clipPath>
    </defs>
</svg>