<svg  class="img_fluid" width="90" height="45" viewBox="0 0 875 384" fill="none" xmlns="http://www.w3.org/2000/svg">
            <path d="M349.418 190.148C357.779 194.405 361.74 202.028 361.74 211.127C361.594 229.022 350.736 243.544 329.76 243.544H281.643V140.854H325.504C343.257 140.854 357.487 154.646 357.487 172.397C357.486 178.557 354.404 186.041 349.418 190.148ZM307.02 164.326V180.905H323.599C334.014 180.905 334.014 164.326 323.453 164.326H307.02ZM307.02 202.764V220.222H327.999C338.561 220.222 338.414 202.764 327.853 202.764H307.02Z" fill="#C4161C"></path>
            <path d="M468.978 239.73V243.544H439.638L422.031 213.327H408.39V243.544C399.589 243.544 390.639 243.544 382.128 243.544C382.128 209.363 382.128 175.183 382.128 140.854C396.946 140.854 412.201 140.854 427.166 140.854C467.508 141.002 474.844 189.562 448.878 207.164L468.978 239.73ZM427.166 164.326C421.005 164.182 414.551 164.326 408.39 164.326C408.39 172.69 408.39 181.784 408.39 189.999H427.166C441.398 189.999 442.13 164.476 427.166 164.326Z" fill="#C4161C"></path>
            <path d="M528.387 220.515V243.545H476.309V220.515H489.367V163.741H477.338V140.855H527.361V163.741H515.33V220.515H528.387V220.515Z" fill="#C4161C"></path>
            <path d="M535.427 164.326C535.427 156.41 535.427 148.632 535.427 140.854H611.709C611.709 148.631 611.709 156.41 611.709 164.326H586.623V243.545C577.971 243.545 569.313 243.545 560.659 243.545V164.326H535.427Z" fill="#C4161C"></path>
            <path d="M680.366 230.637H639.875L633.86 243.545H608.19V239.731L654.397 139.539H665.694L712.053 239.731V243.545H686.38L680.366 230.637ZM659.976 181.198L648.386 208.192H671.859L659.976 181.198Z" fill="#C4161C"></path>
            <path d="M769.117 220.515V243.545H717.04V220.515H730.098V163.741H718.066V140.855H768.09V163.741H756.061V220.515H769.117V220.515Z" fill="#C4161C"></path>
            <path d="M813.42 193.078V243.545C804.321 243.545 795.228 243.545 786.277 243.545V140.417H795.816L847.744 191.177V140.855C856.694 140.855 865.644 140.855 874.592 140.855V243.695H865.202L813.42 193.078Z" fill="#C4161C"></path>
            <path d="M308.274 81.8459H345.851C345.851 90.7239 345.851 96.786 345.851 105.667C324.547 105.667 302.651 105.667 281.643 105.667V2.10303C290.521 2.10303 299.25 2.10303 308.275 2.10303C308.274 55.658 308.274 37.7589 308.274 81.8459Z" fill="#211D70"></path>
            <path d="M428.706 25.7742C413.318 25.7742 405.625 25.7742 390.383 25.7742V40.4211H425.597C425.597 48.2631 425.597 56.1061 425.597 63.9441H390.383C390.383 70.0091 390.383 75.9282 390.383 82.1392C405.625 82.1392 414.5 82.1392 430.035 82.1392C430.035 89.8342 430.035 97.8242 430.035 105.665C405.771 105.665 388.015 105.665 364.05 105.665C364.05 71.0422 364.05 36.4251 364.05 2.10107C388.015 2.10107 404.439 2.10107 428.706 2.10107C428.706 9.79507 428.706 17.7862 428.706 25.7742Z" fill="#211D70"></path>
            <path d="M499.567 0.770996C520.429 0.919996 542.175 11.719 547.208 37.46H521.17C516.879 28.585 510.07 25.0341 499.567 25.0341C482.847 25.0341 473.823 38.055 473.823 53.885C473.823 71.044 483.886 82.29 499.567 82.29C510.219 82.29 517.028 79.4769 521.761 69.5649H499.716V46.6331H548.686C549.28 56.9891 549.28 66.904 545.726 76.962C538.33 98.565 518.656 106.849 499.567 106.849C473.234 106.849 446.602 89.242 446.456 53.884C446.603 18.523 473.234 0.770996 499.567 0.770996Z" fill="#211D70"></path>
            <path d="M629.466 92.646H588.634L582.569 105.667H556.678V101.82L603.279 0.77002H614.67L661.423 101.82V105.667H635.534L629.466 92.646ZM608.899 42.787L597.213 70.011H620.885L608.899 42.787Z" fill="#211D70"></path>
            <path d="M701.519 81.8459H739.093C739.093 90.7239 739.093 96.786 739.093 105.667C717.791 105.667 695.896 105.667 674.884 105.667V2.10303C683.762 2.10303 692.491 2.10303 701.519 2.10303C701.519 55.658 701.519 37.7589 701.519 81.8459Z" fill="#211D70"></path>
            <path d="M360.35 346.656C360.35 369.293 341.709 382.312 320.405 382.312C299.104 382.312 281.643 369.292 281.643 346.656V333.194C289.781 333.194 298.363 333.194 306.647 333.194V346.215C306.647 354.35 312.712 358.638 320.405 358.638C328.098 358.638 333.276 354.498 333.276 346.215V301.092H318.186C318.186 292.951 318.186 285.259 318.186 277.566H360.35V346.656Z" fill="#211D70"></path>
            <path d="M379.582 329.497C379.582 257.892 485.81 257.892 485.81 329.497C485.81 401.252 379.582 401.252 379.582 329.497ZM458.736 329.497C458.736 292.211 406.804 292.211 406.804 329.497C406.805 367.074 458.736 367.074 458.736 329.497Z" fill="#211D70"></path>
            <path d="M574.133 327.275C582.569 331.569 586.562 339.259 586.562 348.433C586.416 366.479 575.465 381.129 554.31 381.129H505.783V277.565H550.019C567.921 277.565 582.273 291.469 582.273 309.375C582.272 315.587 579.164 323.134 574.133 327.275ZM531.378 301.238V317.958H548.098C558.601 317.958 558.601 301.238 547.949 301.238H531.378ZM531.378 339.997V357.604H552.532C563.184 357.604 563.038 339.997 552.386 339.997H531.378Z" fill="#211D70"></path>
            <path d="M57.444 325.717C79.427 347.115 106.672 363.115 137.056 371.629V273.147L57.444 325.717Z" fill="#211D70"></path>
            <path d="M45.748 259.572L20.915 275.972C24.377 282.836 28.221 289.474 32.475 295.814L87.363 259.572H45.748V259.572Z" fill="#C4161C"></path>
            <path d="M137.057 12.4512C104.97 21.4492 76.384 38.7871 53.793 62.0161L137.057 116.997V12.4512Z" fill="#211D70"></path>
            <path d="M50.082 133.431H91.705L29.742 92.5251C25.659 98.9901 21.943 105.713 18.659 112.681L50.082 133.431Z" fill="#C4161C"></path>
            <path d="M158.082 233.771V376.257C167.666 377.776 177.484 378.585 187.497 378.585C196.884 378.585 206.103 377.877 215.117 376.534V233.77V159.238V7.54614C206.103 6.20614 196.884 5.49512 187.497 5.49512C177.484 5.49512 167.666 6.30807 158.082 7.82507V159.238H3.883C1.997 169.892 0.953003 180.842 0.953003 192.041C0.953003 206.396 2.63101 220.352 5.70001 233.77H158.082V233.771Z" fill="#C4161C"></path>
          </svg>